<svg width="16" height="16" viewBox="0 0 16 16" fill="none" xmlns="http://www.w3.org/2000/svg">
<path d="M11.3333 3.99999H14.6666V5.33333H13.3333V14C13.3333 14.1768 13.2631 14.3464 13.1381 14.4714C13.013 14.5964 12.8435 14.6667 12.6666 14.6667H3.33331C3.1565 14.6667 2.98693 14.5964 2.86191 14.4714C2.73688 14.3464 2.66665 14.1768 2.66665 14V5.33333H1.33331V3.99999H4.66665V1.99999C4.66665 1.82318 4.73688 1.65361 4.86191 1.52859C4.98693 1.40357 5.1565 1.33333 5.33331 1.33333H10.6666C10.8435 1.33333 11.013 1.40357 11.1381 1.52859C11.2631 1.65361 11.3333 1.82318 11.3333 1.99999V3.99999ZM12 5.33333H3.99998V13.3333H12V5.33333ZM5.99998 2.66666V3.99999H9.99998V2.66666H5.99998Z" fill="#9B9FB3"/>
</svg>
